# xmcd
#
# Track frame offsets:
#  150
#  27119
#  46831
#  62038
#  82650
#  98888
#  123318
#  155085
#  170940
#  188169
#  200597
#  219365
#  235228
#
# Disc length: 3208 seconds
#
# Revision: 0
# Processed by: cddbd v1.5.1PL2 Copyright (c) Steve Scherf et al.
# Submitted via: Collectorz.com_Music_Collector 6.10
#
DISCID=ac0c860d
DTITLE=Backsliders - Live
DYEAR=2005
DGENRE=
TTITLE0=Smockstack Lightning
TTITLE1=Hanoi
TTITLE2=Jack
TTITLE3=Thinkin' Man's Drinkin' Man
TTITLE4=Wretch Like Me
TTITLE5=Two On A Lake
TTITLE6=You Three
TTITLE7=Evil Cloud
TTITLE8=Motel 6
TTITLE9=You Got To Move
TTITLE10=Black Top Road
TTITLE11=John Jackson Interview
TTITLE12=Jug Band Blues
EXTD=
EXTT0=
EXTT1=
EXTT2=
EXTT3=
EXTT4=
EXTT5=
EXTT6=
EXTT7=
EXTT8=
EXTT9=
EXTT10=
EXTT11=
EXTT12=
PLAYORDER=
